HIERARCHY
ROOT Hips
{
	OFFSET 0.00000 0.00000 0.00000
	CHANNELS 6 Xposition Yposition Zposition Zrotation Yrotation Xrotation 
	JOINT LHipJoint
	{
		OFFSET 0 0 0
		CHANNELS 3 Zrotation Yrotation Xrotation
		JOINT LeftUpLeg
		{
			OFFSET 1.56857 -1.73443 1.15205
			CHANNELS 3 Zrotation Yrotation Xrotation
			JOINT LeftLeg
			{
				OFFSET 2.39362 -6.57643 0.00000
				CHANNELS 3 Zrotation Yrotation Xrotation
				JOINT LeftFoot
				{
					OFFSET 2.50952 -6.89485 0.00000
					CHANNELS 3 Zrotation Yrotation Xrotation
					JOINT LeftToeBase
					{
						OFFSET 0.17171 -0.47178 1.88682
						CHANNELS 3 Zrotation Yrotation Xrotation
						End Site
						{
							OFFSET 0.00000 -0.00000 0.98146
						}
					}
				}
			}
		}
	}
	JOINT RHipJoint
	{
		OFFSET 0 0 0
		CHANNELS 3 Zrotation Yrotation Xrotation
		JOINT RightUpLeg
		{
			OFFSET -1.28153 -1.73443 1.15205
			CHANNELS 3 Zrotation Yrotation Xrotation
			JOINT RightLeg
			{
				OFFSET -2.26861 -6.23296 0.00000
				CHANNELS 3 Zrotation Yrotation Xrotation
				JOINT RightFoot
				{
					OFFSET -2.54143 -6.98254 0.00000
					CHANNELS 3 Zrotation Yrotation Xrotation
					JOINT RightToeBase
					{
						OFFSET -0.23309 -0.64041 1.93119
						CHANNELS 3 Zrotation Yrotation Xrotation
						End Site
						{
							OFFSET -0.00000 -0.00000 1.02013
						}
					}
				}
			}
		}
	}
	JOINT LowerBack
	{
		OFFSET 0 0 0
		CHANNELS 3 Zrotation Yrotation Xrotation
		JOINT Spine
		{
			OFFSET -0.07096 2.10460 -0.27878
			CHANNELS 3 Zrotation Yrotation Xrotation
			JOINT Spine1
			{
				OFFSET -0.00826 2.13662 -0.08279
				CHANNELS 3 Zrotation Yrotation Xrotation
				JOINT Neck
				{
					OFFSET 0 0 0
					CHANNELS 3 Zrotation Yrotation Xrotation
					JOINT Neck1
					{
						OFFSET 0.03239 1.77799 0.24435
						CHANNELS 3 Zrotation Yrotation Xrotation
						JOINT Head
						{
							OFFSET 0.01026 1.74194 -0.49664
							CHANNELS 3 Zrotation Yrotation Xrotation
							End Site
							{
								OFFSET 0.00170 1.83057 -0.19653
							}
						}
					}
				}
				JOINT LeftShoulder
				{
					OFFSET 0 0 0
					CHANNELS 3 Zrotation Yrotation Xrotation
					JOINT LeftArm
					{
						OFFSET 3.19178 1.35907 -0.31412
						CHANNELS 3 Zrotation Yrotation Xrotation
						JOINT LeftForeArm
						{
							OFFSET 4.85247 -0.00000 -0.00000
							CHANNELS 3 Zrotation Yrotation Xrotation
							JOINT LeftHand
							{
								OFFSET 3.55584 -0.00000 0.00000
								CHANNELS 3 Zrotation Yrotation Xrotation
								JOINT LeftFingerBase
								{
									OFFSET 0 0 0
									CHANNELS 3 Zrotation Yrotation Xrotation
									JOINT LeftHandIndex1
									{
										OFFSET 0.69320 -0.00000 0.00000
										CHANNELS 3 Zrotation Yrotation Xrotation
										End Site
										{
											OFFSET 0.55888 -0.00000 0.00000
										}
									}
								}
								JOINT LThumb
								{
									OFFSET 0 0 0
									CHANNELS 3 Zrotation Yrotation Xrotation
									End Site
									{
										OFFSET 0.56741 -0.00000 0.56741
									}
								}
							}
						}
					}
				}
				JOINT RightShoulder
				{
					OFFSET 0 0 0
					CHANNELS 3 Zrotation Yrotation Xrotation
					JOINT RightArm
					{
						OFFSET -3.28999 1.24191 -0.26899
						CHANNELS 3 Zrotation Yrotation Xrotation
						JOINT RightForeArm
						{
							OFFSET -4.64462 -0.00000 0.00000
							CHANNELS 3 Zrotation Yrotation Xrotation
							JOINT RightHand
							{
								OFFSET -3.40703 -0.00000 0.00000
								CHANNELS 3 Zrotation Yrotation Xrotation
								JOINT RightFingerBase
								{
									OFFSET 0 0 0
									CHANNELS 3 Zrotation Yrotation Xrotation
									JOINT RightHandIndex1
									{
										OFFSET -0.61958 -0.00000 0.00000
										CHANNELS 3 Zrotation Yrotation Xrotation
										End Site
										{
											OFFSET -0.49952 -0.00000 0.00000
										}
									}
								}
								JOINT RThumb
								{
									OFFSET 0 0 0
									CHANNELS 3 Zrotation Yrotation Xrotation
									End Site
									{
										OFFSET -0.50715 -0.00000 0.50715
									}
								}
							}
						}
					}
				}
			}
		}
	}
}
MOTION
Frames: 14
Frame Time: .0083333
-28.1826 17.1233 0.9946 0 0 0 0 0 0 -21 0 0 0 0 0 0 0 0 0 0 0 0 0 0 21 0 0 0 0 0 0 0 0 0 0 0 0 0 0 0 0 0 0 0 0 0 0 -16 0 0 21 0 0 11 0 0 0 -8 0 0 0 0 0 0 0 0 0 0 0 0 0 0 0 0 0 0 0 0 8 0 0 0 0 0 0 0 0 0 0 0 0 0 0 0 0 0
-28.1826 17.1233 0.9946 24.1127 86.2827 25.9871 0.0000 0.0000 0.0000 -18.6538 6.5671 7.1657 0.0050 -0.4555 -1.2515 0.3127 5.4782 -13.9994 0.0409 -1.3048 -3.5879 0.0000 0.0000 0.0000 16.7379 -8.0236 4.1911 -0.0194 -0.8982 2.4688 -0.7517 1.5367 -15.9308 -0.0001 0.0632 -0.1736 -4.2674 1.7164 3.7592 -0.2524 2.1387 1.0677 2.0284 1.0820 -1.1545 4.4680 3.1154 -22.1703 -2.5562 3.6715 23.1151 -1.0791 1.7823 11.3215 -0.0000 -0.0000 0.0000 -85.6373 1.2716 41.7110 13.6704 -22.2616 -2.7020 -0.0000 -0.0000 10.8029 23.0793 -25.4375 -10.3718 -7.1250 0.0000 -0.0000 -3.9842 2.6975 3.8016 -0.0000 -0.0000 0.0000 86.1476 -4.7981 34.7757 -17.7670 27.8577 -4.4398 0.0000 0.0000 1.4993 -15.1134 -28.7598 7.4037 7.1250 -0.0000 -0.0000 17.6808 -58.7151 -6.0484
-28.1818 17.1234 0.9950 22.3740 86.3072 24.2495 0.0000 0.0000 0.0000 -18.5112 6.5606 7.1852 0.0051 -0.4597 -1.2631 0.3158 5.4865 -14.0524 0.0331 -1.1742 -3.2283 0.0000 0.0000 0.0000 16.8543 -8.0820 4.1463 -0.0206 -0.9273 2.5487 -0.7494 1.6673 -15.8739 -0.0000 0.0121 -0.0332 -4.1445 1.7186 3.7384 -0.2285 2.1478 1.0830 1.9848 1.0855 -1.1243 4.4578 3.1248 -22.2572 -2.5411 3.6824 23.1866 -1.0691 1.7878 11.3649 -0.0000 -0.0000 0.0000 -85.6073 1.2356 41.8111 13.6565 -22.2416 -2.6967 -0.0000 -0.0000 10.7087 23.0350 -25.3528 -10.3185 -7.1250 0.0000 -0.0000 -4.0010 2.7945 3.8107 -0.0000 -0.0000 0.0000 86.1651 -4.7505 34.7274 -17.7207 27.7981 -4.4182 0.0000 0.0000 1.5269 -15.1669 -28.4731 7.3637 7.1250 -0.0000 -0.0000 17.4337 -58.4530 -5.8501
-28.1788 17.1241 0.9931 23.7428 86.2606 25.6285 0.0000 0.0000 0.0000 -18.6609 6.5833 7.1906 0.0055 -0.4786 -1.3150 0.3068 5.5769 -13.9985 0.0514 -1.4635 -4.0252 0.0000 0.0000 0.0000 16.6578 -8.3439 4.0427 -0.0218 -0.9542 2.6228 -0.7516 1.9576 -15.8313 -0.0009 0.1898 -0.5214 -4.2226 1.7159 3.7080 -0.2536 2.1424 1.0760 2.0038 1.0829 -1.1160 4.3936 3.1125 -22.2661 -2.5090 3.6794 23.2075 -1.0471 1.7850 11.3722 0.0000 0.0000 0.0000 -85.6064 1.2509 41.8683 13.6463 -22.2268 -2.6929 -0.0000 -0.0000 10.7182 23.0192 -25.2837 -10.2851 -7.1250 0.0000 -0.0000 -4.0024 2.8697 3.8065 0.0000 0.0000 0.0000 86.1480 -4.7334 34.7179 -17.6643 27.7252 -4.3919 0.0000 0.0000 1.5627 -15.0505 -28.1642 7.2332 7.1250 -0.0000 -0.0000 17.3537 -58.1321 -5.6873
-28.1776 17.1252 0.9922 25.0147 86.2286 26.8953 0.0000 0.0000 0.0000 -18.7714 6.6593 7.1651 0.0056 -0.4816 -1.3233 0.2995 5.6009 -13.9114 0.0709 -1.7179 -4.7268 0.0000 0.0000 0.0000 16.5394 -8.3686 4.0852 -0.0224 -0.9653 2.6532 -0.7660 2.0572 -15.9654 -0.0004 0.1276 -0.3505 -4.3106 1.7134 3.6907 -0.2755 2.1371 1.0830 2.0314 1.0801 -1.1010 4.3910 3.1112 -22.2328 -2.5032 3.6776 23.1823 -1.0452 1.7849 11.3561 0.0000 -0.0000 0.0000 -85.6015 1.2362 41.9003 13.6338 -22.2088 -2.6881 -0.0000 -0.0000 10.7441 23.0809 -25.3033 -10.3226 -7.1250 0.0000 -0.0000 -3.9673 2.8375 3.7752 0.0000 -0.0000 0.0000 86.1383 -4.7261 34.7971 -17.6742 27.7380 -4.3965 0.0000 0.0000 1.5196 -15.1197 -28.2285 7.2828 7.1250 -0.0000 -0.0000 17.3230 -58.2087 -5.7090
-28.1774 17.1244 0.9928 24.6848 86.2171 26.5772 0.0000 0.0000 0.0000 -18.7382 6.7088 7.1391 0.0056 -0.4822 -1.3250 0.3034 5.5196 -13.8978 0.0602 -1.5838 -4.3566 0.0000 0.0000 0.0000 16.5986 -8.2543 4.1015 -0.0227 -0.9720 2.6719 -0.7748 2.0211 -16.0679 -0.0000 -0.0091 0.0250 -4.3156 1.7172 3.6737 -0.2652 2.1425 1.0779 2.0449 1.0828 -1.0976 4.3776 3.1092 -22.1747 -2.4683 3.6706 23.1314 -1.0318 1.7854 11.3245 0.0000 -0.0000 0.0000 -85.6109 1.2402 41.8320 13.6258 -22.1972 -2.6851 -0.0000 -0.0000 10.8278 23.0319 -25.3200 -10.3048 -7.1250 0.0000 -0.0000 -3.9991 2.8295 3.8062 0.0000 -0.0000 0.0000 86.1275 -4.7417 34.8747 -17.7119 27.7866 -4.4141 0.0000 0.0000 1.4731 -15.1904 -28.3478 7.3461 7.1250 -0.0000 -0.0000 17.3269 -58.3385 -5.7648
-28.1767 17.1232 0.9919 25.0106 86.2132 26.9120 0.0000 0.0000 0.0000 -18.7856 6.6265 7.1805 0.0059 -0.4969 -1.3653 0.3121 5.4733 -13.9860 0.0376 -1.2523 -3.4433 0.0000 0.0000 0.0000 16.5333 -8.4251 3.9837 -0.0227 -0.9719 2.6714 -0.7633 2.1115 -15.9242 -0.0005 0.1459 -0.4009 -4.3028 1.7039 3.6521 -0.2871 2.1264 1.0831 2.0168 1.0743 -1.0779 4.3640 3.1208 -22.1912 -2.4269 3.6798 23.1448 -1.0127 1.7935 11.3319 0.0000 -0.0000 0.0000 -85.6043 1.2370 41.7261 13.6245 -22.1953 -2.6846 -0.0000 -0.0000 10.9248 22.8959 -25.2690 -10.2195 -7.1250 0.0000 -0.0000 -4.0756 2.9085 3.8735 0.0000 -0.0000 0.0000 86.1390 -4.7197 34.9412 -17.7246 27.8031 -4.4200 0.0000 0.0000 1.4623 -15.1311 -28.5308 7.3592 7.1250 -0.0000 -0.0000 17.5094 -58.5002 -5.8965
-28.1785 17.1251 0.9916 25.2686 86.2788 27.1243 0.0000 0.0000 0.0000 -18.7903 6.4591 7.2608 0.0054 -0.4765 -1.3093 0.3193 5.4876 -14.1038 0.0250 -1.0210 -2.8066 0.0000 0.0000 0.0000 16.5005 -8.5556 3.9961 -0.0215 -0.9468 2.6025 -0.7498 2.0891 -15.7828 -0.0019 0.2829 -0.7774 -4.2621 1.6801 3.7986 -0.2923 2.0877 1.0469 1.9856 1.0576 -1.1929 4.3761 3.1353 -22.1961 -2.4538 3.7087 23.2382 -1.0196 1.8053 11.3701 0.0000 -0.0000 0.0000 -85.6072 1.3099 41.6632 13.6348 -22.2102 -2.6885 -0.0000 -0.0000 10.9480 22.8319 -25.2920 -10.1968 -7.1250 0.0000 -0.0000 -4.1172 2.8966 3.9142 0.0000 -0.0000 0.0000 86.1495 -4.7517 34.9640 -17.6958 27.7659 -4.4066 0.0000 0.0000 1.4713 -15.1360 -28.5667 7.3701 7.1250 -0.0000 -0.0000 17.5279 -58.5356 -5.9179
-28.1806 17.1267 0.9934 24.8163 86.3181 26.6561 0.0000 0.0000 0.0000 -18.7126 6.4747 7.2202 0.0046 -0.4400 -1.2090 0.3159 5.4708 -14.0395 0.0339 -1.1883 -3.2670 0.0000 0.0000 0.0000 16.5163 -8.6610 3.9633 -0.0218 -0.9532 2.6200 -0.7478 2.1870 -15.7410 -0.0017 0.2646 -0.7269 -4.2590 1.6785 3.8097 -0.2526 2.0866 1.0814 2.0251 1.0561 -1.1648 4.3675 3.1395 -22.2465 -2.4792 3.7189 23.1931 -1.0255 1.8044 11.3634 -0.0000 0.0000 0.0000 -85.6615 1.2507 41.6217 13.6223 -22.1922 -2.6838 -0.0000 -0.0000 10.9578 22.8532 -25.3848 -10.2415 -7.1250 0.0000 -0.0000 -4.1151 2.7956 3.9197 -0.0000 0.0000 0.0000 86.1228 -4.6637 34.8864 -17.6605 27.7203 -4.3902 0.0000 0.0000 1.4765 -15.1209 -28.2388 7.2858 7.1250 -0.0000 -0.0000 17.3285 -58.2189 -5.7152
-28.1803 17.1257 0.9944 23.7335 86.2966 25.6251 0.0000 0.0000 0.0000 -18.6307 6.5701 7.1385 0.0048 -0.4487 -1.2329 0.3096 5.4885 -13.9629 0.0463 -1.3883 -3.8178 0.0000 0.0000 0.0000 16.5898 -8.6547 3.8741 -0.0235 -0.9905 2.7227 -0.7549 2.2886 -15.7973 -0.0005 0.1462 -0.4018 -4.2066 1.6851 3.7441 -0.2428 2.1003 1.0762 2.0070 1.0622 -1.1330 4.3843 3.1324 -22.1941 -2.5089 3.7113 23.1348 -1.0410 1.7988 11.3321 -0.0000 0.0000 0.0000 -85.6598 1.2715 41.5888 13.6314 -22.2053 -2.6872 -0.0000 -0.0000 11.0337 22.8891 -25.3846 -10.2589 -7.1250 0.0000 -0.0000 -4.0933 2.7889 3.8994 -0.0000 0.0000 0.0000 86.1282 -4.6369 34.8917 -17.6704 27.7330 -4.3948 0.0000 0.0000 1.3985 -15.0620 -28.0932 7.2223 7.1250 -0.0000 -0.0000 17.2958 -58.0666 -5.6401
-28.1806 17.1250 0.9948 23.4435 86.3054 25.3587 0.0000 0.0000 0.0000 -18.6045 6.5798 7.1151 0.0051 -0.4616 -1.2685 0.3125 5.5116 -14.0257 0.0514 -1.4635 -4.0251 0.0000 0.0000 0.0000 16.7183 -8.3170 3.9800 -0.0235 -0.9893 2.7193 -0.7680 2.0077 -15.9980 -0.0001 -0.0668 0.1834 -4.1620 1.6767 3.7121 -0.2615 2.0921 1.0729 1.9642 1.0577 -1.1157 4.4297 3.1351 -22.1484 -2.5242 3.7042 23.0957 -1.0559 1.7978 11.3098 0.0000 0.0000 0.0000 -85.5911 1.2936 41.6291 13.6471 -22.2280 -2.6932 -0.0000 -0.0000 11.0043 22.8813 -25.4306 -10.2721 -7.1250 0.0000 -0.0000 -4.1034 2.7423 3.9126 0.0000 0.0000 0.0000 86.1631 -4.6096 34.9647 -17.6692 27.7315 -4.3942 0.0000 0.0000 1.3553 -15.0481 -28.2671 7.2560 7.1250 -0.0000 -0.0000 17.4229 -58.2300 -5.7522
-28.1812 17.1245 0.9956 23.9437 86.2961 25.8533 0.0000 0.0000 0.0000 -18.6386 6.5825 7.1290 0.0052 -0.4665 -1.2818 0.3139 5.4915 -14.0286 0.0524 -1.4766 -4.0613 0.0000 0.0000 0.0000 16.7410 -8.1446 4.0392 -0.0219 -0.9554 2.6261 -0.7618 1.7430 -15.9907 -0.0000 -0.0428 0.1176 -4.2247 1.6801 3.7115 -0.2563 2.0947 1.0801 2.0046 1.0590 -1.1105 4.4144 3.1369 -22.1730 -2.5128 3.7064 23.0805 -1.0485 1.7983 11.3082 0.0000 -0.0000 0.0000 -85.5945 1.2640 41.6324 13.6319 -22.2061 -2.6874 -0.0000 -0.0000 10.9768 22.8381 -25.4617 -10.2624 -7.1250 0.0000 -0.0000 -4.1333 2.7181 3.9431 0.0000 -0.0000 0.0000 86.1399 -4.6079 35.0114 -17.6834 27.7498 -4.4008 0.0000 0.0000 1.3730 -15.0878 -28.3830 7.3029 7.1250 -0.0000 -0.0000 17.4573 -58.3495 -5.8146
-28.1802 17.1238 0.9954 24.5905 86.2555 26.5042 0.0000 0.0000 0.0000 -18.7207 6.5540 7.1295 0.0050 -0.4566 -1.2545 0.3116 5.4962 -13.9987 0.0427 -1.3340 -3.6683 0.0000 0.0000 0.0000 16.6711 -8.1834 4.0039 -0.0213 -0.9421 2.5895 -0.7531 1.6902 -15.9087 -0.0010 0.2019 -0.5548 -4.2857 1.6881 3.6898 -0.2679 2.1045 1.0891 2.0271 1.0635 -1.0914 4.4044 3.1395 -22.2374 -2.5187 3.7121 23.1017 -1.0475 1.7985 11.3286 -0.0000 0.0000 0.0000 -85.6264 1.2353 41.5795 13.6252 -22.1963 -2.6849 -0.0000 -0.0000 11.0632 22.8820 -25.3580 -10.2456 -7.1250 0.0000 -0.0000 -4.0946 2.8181 3.8984 -0.0000 0.0000 0.0000 86.1087 -4.6604 35.0089 -17.7190 27.7959 -4.4174 0.0000 0.0000 1.3844 -15.1122 -28.2682 7.2883 7.1250 -0.0000 -0.0000 17.3566 -58.2450 -5.7358
-28.1793 17.1237 0.9953 25.1923 86.2431 27.1099 0.0000 0.0000 0.0000 -18.7166 6.7341 6.9628 0.0037 -0.3945 -1.0840 0.3178 5.3245 -13.9422 0.0385 -1.2668 -3.4832 0.0000 0.0000 0.0000 16.6426 -8.1128 4.0555 -0.0215 -0.9467 2.6023 -0.7593 1.6521 -15.9853 -0.0020 0.2856 -0.7847 -4.3180 1.6922 3.7070 -0.2805 2.1071 1.0673 2.0312 1.0658 -1.1243 4.4139 3.1197 -22.2552 -2.5581 3.6950 23.1748 -1.0661 1.7871 11.3599 -0.0000 -0.0000 0.0000 -85.6299 1.2993 41.5878 13.6516 -22.2345 -2.6949 -0.0000 -0.0000 11.1192 22.9758 -25.4026 -10.3080 -7.1250 0.0000 -0.0000 -4.0428 2.7537 3.8537 -0.0000 -0.0000 0.0000 86.1161 -4.7386 34.8972 -17.7218 27.7995 -4.4187 0.0000 0.0000 1.4672 -15.0624 -28.1564 7.2373 7.1250 -0.0000 -0.0000 17.3362 -58.1272 -5.6793
